<svg width="256" height="256" viewBox="0 0 256 256" fill="none" xmlns="http://www.w3.org/2000/svg">
  <defs>
    <linearGradient id="billkerfyBg" x1="24" y1="20" x2="230" y2="236" gradientUnits="userSpaceOnUse">
      <stop stop-color="#2DD4BF"/>
      <stop offset="1" stop-color="#0F766E"/>
    </linearGradient>
    <linearGradient id="billkerfyWallet" x1="56" y1="76" x2="206" y2="188" gradientUnits="userSpaceOnUse">
      <stop stop-color="#FFFFFF" stop-opacity="0.98"/>
      <stop offset="1" stop-color="#CCFBF1"/>
    </linearGradient>
  </defs>
  <rect x="12" y="12" width="232" height="232" rx="56" fill="url(#billkerfyBg)"/>
  <rect x="36" y="54" width="184" height="42" rx="19" fill="#0B5F58" fill-opacity="0.42"/>
  <rect x="46" y="72" width="164" height="114" rx="30" fill="url(#billkerfyWallet)"/>
  <rect x="58" y="92" width="140" height="26" rx="13" fill="#99F6E4"/>
  <rect x="58" y="130" width="80" height="16" rx="8" fill="#14B8A6" fill-opacity="0.8"/>
  <rect x="58" y="152" width="64" height="12" rx="6" fill="#2DD4BF" fill-opacity="0.66"/>
  <rect x="150" y="126" width="46" height="38" rx="12" fill="#0F766E"/>
  <circle cx="173" cy="145" r="7" fill="#A7F3D0"/>
  <path d="M106 92C106 75.4315 119.431 62 136 62H182C198.569 62 212 75.4315 212 92V98H106V92Z" fill="#E6FFFA" fill-opacity="0.36"/>
</svg>
